<svg width="34" height="34" viewBox="4.5 1 34 34"  fill="none" xmlns="http://www.w3.org/2000/svg" style="margin: 0px;">
<g filter="url(#filter0_d_1808_30)">
<path d="M24.9344 19.463C24.9344 19.463 25.1094 20.8285 23.6856 24.0263C21.6607 28.572 26.6091 29.9375 26.6091 29.9375C26.6091 29.9375 23.7498 27.8834 25.3662 24.2597C25.3662 24.2597 24.1991 27.049 26.6441 29.4006C26.9184 27.8426 28.4939 26.8039 28.3539 24.0379C28.1847 20.9744 24.9344 19.463 24.9344 19.463Z" fill="#C1DDD1"/>
<path d="M12.8196 14.795C12.8196 14.795 13.7066 15.6236 14.5527 18.6055C15.749 22.8478 19.8863 20.9746 19.8863 20.9746C19.8863 20.9746 16.7818 21.1964 15.8365 17.8118C15.8365 17.8118 16.6185 20.3677 19.612 20.5836C18.9234 19.3699 19.4019 17.771 17.7447 15.9737C15.889 13.978 12.8196 14.795 12.8196 14.795Z" fill="#C1DDD1"/>
<path d="M22.096 16.7323C22.096 16.7323 22.5219 15.1742 25.5213 12.3499C29.7753 8.32938 25.0253 4.6181 25.0253 4.6181C25.0253 4.6181 27.1902 8.13681 23.8057 11.3346C23.8057 11.3346 26.3383 8.83705 24.7394 5.18413C23.7415 6.74216 21.5591 7.16231 20.4621 10.22C19.2541 13.622 22.096 16.7323 22.096 16.7323Z" fill="#C1DDD1"/>
<path d="M20.9471 25.1292C21.2661 24.8102 21.2661 24.2929 20.9471 23.9738C20.628 23.6548 20.1107 23.6548 19.7917 23.9738C19.4726 24.2929 19.4726 24.8102 19.7917 25.1292C20.1107 25.4483 20.628 25.4483 20.9471 25.1292Z" fill="#C1DDD1"/>
<path d="M17.2607 10.7394C17.5797 10.4203 17.5797 9.90304 17.2607 9.58398C16.9416 9.26493 16.4243 9.26493 16.1053 9.58398C15.7862 9.90304 15.7862 10.4203 16.1053 10.7394C16.4243 11.0584 16.9416 11.0584 17.2607 10.7394Z" fill="#C1DDD1"/>
<path d="M22.7301 32.4064C22.9817 32.1548 22.9817 31.7469 22.7301 31.4953C22.4785 31.2437 22.0705 31.2437 21.819 31.4953C21.5674 31.7469 21.5674 32.1548 21.819 32.4064C22.0706 32.658 22.4785 32.658 22.7301 32.4064Z" fill="#C1DDD1"/>
<path d="M28.4949 15.8803C28.9461 15.4291 28.9461 14.6976 28.4949 14.2464C28.0437 13.7952 27.3122 13.7952 26.861 14.2464C26.4098 14.6976 26.4098 15.4291 26.861 15.8803C27.3122 16.3315 28.0437 16.3315 28.4949 15.8803Z" fill="#C1DDD1"/>
<circle cx="21.5001" cy="17.8836" r="16.6286" stroke="#C1DDD1" stroke-width="0.742719"/>
</g>
<defs>
<filter id="filter0_d_1808_30" x="0.500122" y="0.883606" width="42" height="42" filterUnits="userSpaceOnUse" color-interpolation-filters="sRGB">
<feFlood flood-opacity="0" result="BackgroundImageFix"/>
<feColorMatrix in="SourceAlpha" type="matrix" values="0 0 0 0 0 0 0 0 0 0 0 0 0 0 0 0 0 0 127 0" result="hardAlpha"/>
<feOffset dy="4"/>
<feGaussianBlur stdDeviation="2"/>
<feComposite in2="hardAlpha" operator="out"/>
<feColorMatrix type="matrix" values="0 0 0 0 0 0 0 0 0 0 0 0 0 0 0 0 0 0 0.25 0"/>
<feBlend mode="normal" in2="BackgroundImageFix" result="effect1_dropShadow_1808_30"/>
<feBlend mode="normal" in="SourceGraphic" in2="effect1_dropShadow_1808_30" result="shape"/>
</filter>
</defs>
</svg>
