<svg width="45" height="45" viewBox="0 0 45 45" fill="none" xmlns="http://www.w3.org/2000/svg">
<path fill-rule="evenodd" clip-rule="evenodd" d="M31.5217 7.21538C29.7933 7.17764 27.8578 7.8473 26.0214 9.68367L24.2614 7.92367C26.5317 5.65337 29.1062 4.67303 31.5761 4.72696C34.024 4.78041 36.2654 5.84769 37.9014 7.48367C39.5374 9.11965 40.6046 11.3611 40.6581 13.809C40.712 16.2789 39.7317 18.8534 37.4614 21.1237C36.9754 21.6097 36.1874 21.6097 35.7014 21.1237C35.2154 20.6377 35.2154 19.8497 35.7014 19.3637C37.5378 17.5273 38.2074 15.5918 38.1697 13.8633C38.1315 12.113 37.3654 10.4677 36.1414 9.24367C34.9174 8.01965 33.2721 7.2536 31.5217 7.21538Z" fill="#F7FCF4"/>
<path fill-rule="evenodd" clip-rule="evenodd" d="M37.4609 19.3635C37.9469 19.8495 37.9469 20.6375 37.4609 21.1235L31.3009 27.2835C30.8148 27.7695 30.0269 27.7695 29.5409 27.2835L18.1009 15.8435C17.6149 15.3575 17.6149 14.5695 18.1009 14.0835L24.2609 7.92352L26.0209 9.68352L20.7409 14.9635L30.4209 24.6435L35.7009 19.3635C36.1869 18.8775 36.9748 18.8775 37.4609 19.3635Z" fill="#F7FCF4"/>
<path fill-rule="evenodd" clip-rule="evenodd" d="M13.4794 38.552C15.2078 38.5897 17.1433 37.92 18.9797 36.0837L20.7397 37.8437C18.4694 40.114 15.8949 41.0943 13.425 41.0404C10.9771 40.9869 8.73569 39.9196 7.09971 38.2837C5.46374 36.6477 4.39646 34.4063 4.34301 31.9583C4.28908 29.4884 5.26942 26.914 7.53972 24.6437C8.02573 24.1576 8.81371 24.1576 9.29972 24.6437C9.78573 25.1297 9.78573 25.9176 9.29971 26.4037C7.46335 28.24 6.79369 30.1756 6.83143 31.904C6.86965 33.6544 7.63569 35.2996 8.85971 36.5237C10.0837 37.7477 11.729 38.5137 13.4794 38.552Z" fill="#F7FCF4"/>
<path fill-rule="evenodd" clip-rule="evenodd" d="M7.53963 26.4037C7.05362 25.9177 7.05362 25.1297 7.53963 24.6437L13.6996 18.4837C14.1856 17.9977 14.9736 17.9977 15.4596 18.4837L26.8996 29.9237C27.3856 30.4097 27.3856 31.1977 26.8996 31.6837L20.7396 37.8437L18.9796 36.0837L24.2596 30.8037L14.5796 21.1237L9.29963 26.4037C8.81362 26.8897 8.02564 26.8897 7.53963 26.4037Z" fill="#F7FCF4"/>
</svg>
