<svg width="180" height="180" viewBox="0 0 180 180" fill="none" xmlns="http://www.w3.org/2000/svg">
<circle cx="90.0007" cy="90.3837" r="65.5" fill="#C1DDD1"/>
<path d="M67.7807 164.108C48.2278 158.215 31.8166 144.796 22.1576 126.803C12.4985 108.81 10.3828 87.7172 16.2757 68.1642C22.1687 48.6113 35.5877 32.2002 53.5806 22.5411C71.5736 12.882 92.6667 10.7663 112.22 16.6592" stroke="#C1DDD1"/>
<path d="M159.704 57.6671C164.797 68.5186 167.287 80.4094 166.974 92.3927C166.661 104.376 163.555 116.121 157.902 126.692C152.25 137.263 144.208 146.368 134.415 153.283C124.623 160.197 113.352 164.73 101.499 166.52" stroke="#C1DDD1"/>
<path d="M64.3179 175.598C52.8095 172.129 42.1229 166.366 32.9027 158.654C23.6826 150.943 16.1199 141.444 10.6709 130.731C5.22196 120.017 1.99958 108.311 1.19817 96.3177C0.396757 84.3247 2.03293 72.2937 6.00798 60.9503" stroke="#C1DDD1"/>
<path d="M44.7066 13.771C56.5553 6.76601 69.8674 2.60473 83.5963 1.61433C97.3251 0.623917 111.097 2.83137 123.828 8.06315C136.56 13.2949 147.904 21.4084 156.97 31.7659C166.036 42.1233 172.575 54.4423 176.075 67.7545C179.575 81.0667 179.939 95.0092 177.14 108.486C174.34 121.963 168.453 134.607 159.94 145.423C151.428 156.24 140.523 164.935 128.082 170.825C115.641 176.714 102.003 179.638 88.2416 179.366" stroke="#C1DDD1"/>
<path d="M67.1956 82.8837V68.6837H73.3756C74.0156 68.6837 74.6022 68.817 75.1356 69.0837C75.6689 69.3504 76.1289 69.7037 76.5156 70.1437C76.9156 70.5837 77.2222 71.077 77.4356 71.6237C77.6622 72.1704 77.7756 72.7304 77.7756 73.3037C77.7756 73.9304 77.6622 74.5304 77.4356 75.1037C77.2089 75.677 76.8822 76.1704 76.4556 76.5837C76.0422 76.997 75.5556 77.297 74.9956 77.4837L78.3356 82.8837H75.8156L72.7356 77.9437H69.4356V82.8837H67.1956ZM69.4356 75.9637H73.3556C73.7689 75.9637 74.1356 75.8437 74.4556 75.6037C74.7756 75.3637 75.0289 75.0437 75.2156 74.6437C75.4022 74.2304 75.4956 73.7837 75.4956 73.3037C75.4956 72.8104 75.3889 72.3704 75.1756 71.9837C74.9622 71.5837 74.6822 71.2637 74.3356 71.0237C74.0022 70.7837 73.6356 70.6637 73.2356 70.6637H69.4356V75.9637ZM84.5462 83.0837C83.7329 83.0837 82.9929 82.9437 82.3262 82.6637C81.6729 82.3704 81.1062 81.977 80.6262 81.4837C80.1462 80.977 79.7729 80.4037 79.5062 79.7637C79.2529 79.1104 79.1262 78.417 79.1262 77.6837C79.1262 76.697 79.3529 75.797 79.8062 74.9837C80.2595 74.157 80.8929 73.497 81.7062 73.0037C82.5195 72.497 83.4729 72.2437 84.5662 72.2437C85.6595 72.2437 86.5995 72.497 87.3862 73.0037C88.1862 73.497 88.8062 74.1504 89.2462 74.9637C89.6862 75.777 89.9062 76.6504 89.9062 77.5837C89.9062 77.7437 89.8995 77.897 89.8862 78.0437C89.8729 78.177 89.8595 78.2904 89.8462 78.3837H81.4662C81.5062 78.997 81.6729 79.537 81.9662 80.0037C82.2729 80.457 82.6595 80.817 83.1262 81.0837C83.5929 81.337 84.0929 81.4637 84.6262 81.4637C85.2129 81.4637 85.7662 81.317 86.2862 81.0237C86.8195 80.7304 87.1795 80.3437 87.3662 79.8637L89.2462 80.4037C89.0195 80.9104 88.6729 81.3704 88.2062 81.7837C87.7529 82.1837 87.2129 82.5037 86.5862 82.7437C85.9595 82.9704 85.2795 83.0837 84.5462 83.0837ZM81.4062 76.9237H87.7262C87.6862 76.3237 87.5129 75.797 87.2062 75.3437C86.9129 74.877 86.5329 74.517 86.0662 74.2637C85.6129 73.997 85.1062 73.8637 84.5462 73.8637C83.9995 73.8637 83.4929 73.997 83.0262 74.2637C82.5729 74.517 82.1995 74.877 81.9062 75.3437C81.6129 75.797 81.4462 76.3237 81.4062 76.9237ZM90.9407 79.8237C90.9407 79.157 91.1274 78.577 91.5007 78.0837C91.8874 77.577 92.4141 77.1904 93.0807 76.9237C93.7474 76.6437 94.5207 76.5037 95.4007 76.5037C95.8674 76.5037 96.3407 76.537 96.8207 76.6037C97.3141 76.6704 97.7474 76.777 98.1207 76.9237V76.2637C98.1207 75.5304 97.9007 74.957 97.4607 74.5437C97.0207 74.1304 96.3874 73.9237 95.5607 73.9237C94.9741 73.9237 94.4207 74.0304 93.9007 74.2437C93.3807 74.4437 92.8274 74.7304 92.2407 75.1037L91.5007 73.6237C92.1941 73.157 92.8874 72.8104 93.5807 72.5837C94.2874 72.357 95.0274 72.2437 95.8007 72.2437C97.2007 72.2437 98.3007 72.617 99.1007 73.3637C99.9141 74.097 100.321 75.1437 100.321 76.5037V80.4037C100.321 80.657 100.361 80.837 100.441 80.9437C100.534 81.0504 100.687 81.1104 100.901 81.1237V82.8837C100.701 82.9237 100.521 82.9504 100.361 82.9637C100.201 82.977 100.067 82.9837 99.9607 82.9837C99.4941 82.9837 99.1407 82.8704 98.9007 82.6437C98.6607 82.417 98.5207 82.1504 98.4807 81.8437L98.4207 81.2437C97.9674 81.8304 97.3874 82.2837 96.6807 82.6037C95.9741 82.9237 95.2607 83.0837 94.5407 83.0837C93.8474 83.0837 93.2274 82.9437 92.6807 82.6637C92.1341 82.3704 91.7074 81.977 91.4007 81.4837C91.0941 80.9904 90.9407 80.437 90.9407 79.8237ZM97.6007 80.4637C97.7607 80.2904 97.8874 80.117 97.9807 79.9437C98.0741 79.7704 98.1207 79.617 98.1207 79.4837V78.2837C97.7474 78.137 97.3541 78.0304 96.9407 77.9637C96.5274 77.8837 96.1207 77.8437 95.7207 77.8437C94.9207 77.8437 94.2674 78.0037 93.7607 78.3237C93.2674 78.6437 93.0207 79.0837 93.0207 79.6437C93.0207 79.9504 93.1007 80.2437 93.2607 80.5237C93.4341 80.8037 93.6741 81.0304 93.9807 81.2037C94.3007 81.377 94.6941 81.4637 95.1607 81.4637C95.6407 81.4637 96.1007 81.3704 96.5407 81.1837C96.9807 80.997 97.3341 80.757 97.6007 80.4637ZM102.33 77.6637C102.33 76.6637 102.53 75.757 102.93 74.9437C103.343 74.117 103.903 73.4637 104.61 72.9837C105.316 72.4904 106.13 72.2437 107.05 72.2437C107.85 72.2437 108.57 72.4504 109.21 72.8637C109.863 73.277 110.37 73.7904 110.73 74.4037V68.2837H112.93V80.4037C112.93 80.657 112.976 80.837 113.07 80.9437C113.163 81.0504 113.316 81.1104 113.53 81.1237V82.8837C113.116 82.9504 112.796 82.9837 112.57 82.9837C112.156 82.9837 111.803 82.8637 111.51 82.6237C111.23 82.3837 111.083 82.097 111.07 81.7637L111.05 80.9837C110.65 81.6504 110.11 82.1704 109.43 82.5437C108.75 82.9037 108.043 83.0837 107.31 83.0837C106.59 83.0837 105.923 82.9437 105.31 82.6637C104.71 82.3837 104.183 81.9904 103.73 81.4837C103.29 80.977 102.943 80.397 102.69 79.7437C102.45 79.0904 102.33 78.397 102.33 77.6637ZM110.73 79.1237V76.3837C110.583 75.957 110.343 75.577 110.01 75.2437C109.69 74.897 109.323 74.6237 108.91 74.4237C108.51 74.2237 108.11 74.1237 107.71 74.1237C107.243 74.1237 106.816 74.2237 106.43 74.4237C106.056 74.6237 105.73 74.8904 105.45 75.2237C105.183 75.557 104.976 75.937 104.83 76.3637C104.683 76.7904 104.61 77.237 104.61 77.7037C104.61 78.1837 104.69 78.637 104.85 79.0637C105.01 79.477 105.236 79.8504 105.53 80.1837C105.836 80.5037 106.183 80.757 106.57 80.9437C106.97 81.117 107.403 81.2037 107.87 81.2037C108.163 81.2037 108.456 81.1504 108.75 81.0437C109.056 80.937 109.343 80.7904 109.61 80.6037C109.89 80.417 110.123 80.197 110.31 79.9437C110.51 79.6904 110.65 79.417 110.73 79.1237ZM82.4468 112.884H80.2468V107.024C80.2468 106.05 80.0868 105.337 79.7668 104.884C79.4468 104.43 78.9802 104.204 78.3668 104.204C77.7535 104.204 77.1802 104.437 76.6468 104.904C76.1268 105.357 75.7602 105.95 75.5468 106.684V112.884H73.3468V107.024C73.3468 106.05 73.1868 105.337 72.8668 104.884C72.5468 104.43 72.0868 104.204 71.4868 104.204C70.8735 104.204 70.3002 104.43 69.7668 104.884C69.2468 105.337 68.8735 105.93 68.6468 106.664V112.884H66.4468V102.424H68.4468V104.524C68.8602 103.79 69.4002 103.23 70.0668 102.844C70.7468 102.444 71.5202 102.244 72.3868 102.244C73.2535 102.244 73.9335 102.47 74.4268 102.924C74.9335 103.377 75.2468 103.944 75.3668 104.624C75.8202 103.85 76.3735 103.264 77.0268 102.864C77.6935 102.45 78.4535 102.244 79.3068 102.244C79.9202 102.244 80.4335 102.357 80.8468 102.584C81.2602 102.81 81.5802 103.124 81.8068 103.524C82.0335 103.91 82.1935 104.364 82.2868 104.884C82.3935 105.39 82.4468 105.93 82.4468 106.504V112.884ZM89.682 113.084C88.8553 113.084 88.1153 112.944 87.462 112.664C86.8087 112.37 86.242 111.97 85.762 111.464C85.2953 110.957 84.9353 110.384 84.682 109.744C84.4287 109.09 84.302 108.397 84.302 107.664C84.302 106.93 84.4287 106.237 84.682 105.584C84.9353 104.93 85.2953 104.357 85.762 103.864C86.242 103.357 86.8087 102.964 87.462 102.684C88.1287 102.39 88.8687 102.244 89.682 102.244C90.4953 102.244 91.2287 102.39 91.882 102.684C92.5487 102.964 93.1153 103.357 93.582 103.864C94.062 104.357 94.4287 104.93 94.682 105.584C94.9353 106.237 95.062 106.93 95.062 107.664C95.062 108.397 94.9353 109.09 94.682 109.744C94.4287 110.384 94.062 110.957 93.582 111.464C93.1153 111.97 92.5487 112.37 91.882 112.664C91.2287 112.944 90.4953 113.084 89.682 113.084ZM86.562 107.684C86.562 108.35 86.702 108.95 86.982 109.484C87.262 110.017 87.6353 110.437 88.102 110.744C88.5687 111.05 89.0953 111.204 89.682 111.204C90.2553 111.204 90.7753 111.05 91.242 110.744C91.722 110.424 92.102 109.997 92.382 109.464C92.662 108.917 92.802 108.317 92.802 107.664C92.802 106.997 92.662 106.397 92.382 105.864C92.102 105.33 91.722 104.91 91.242 104.604C90.7753 104.284 90.2553 104.124 89.682 104.124C89.0953 104.124 88.5687 104.284 88.102 104.604C87.6353 104.924 87.262 105.35 86.982 105.884C86.702 106.404 86.562 107.004 86.562 107.684ZM102.893 104.324C102.04 104.337 101.28 104.53 100.613 104.904C99.9599 105.277 99.4932 105.804 99.2132 106.484V112.884H97.0132V102.424H99.0532V104.764C99.4132 104.044 99.8866 103.47 100.473 103.044C101.06 102.604 101.68 102.364 102.333 102.324C102.467 102.324 102.573 102.324 102.653 102.324C102.747 102.324 102.827 102.33 102.893 102.344V104.324ZM109.038 113.084C108.225 113.084 107.485 112.944 106.818 112.664C106.165 112.37 105.598 111.977 105.118 111.484C104.638 110.977 104.265 110.404 103.998 109.764C103.745 109.11 103.618 108.417 103.618 107.684C103.618 106.697 103.845 105.797 104.298 104.984C104.752 104.157 105.385 103.497 106.198 103.004C107.012 102.497 107.965 102.244 109.058 102.244C110.152 102.244 111.092 102.497 111.878 103.004C112.678 103.497 113.298 104.15 113.738 104.964C114.178 105.777 114.398 106.65 114.398 107.584C114.398 107.744 114.392 107.897 114.378 108.044C114.365 108.177 114.352 108.29 114.338 108.384H105.958C105.998 108.997 106.165 109.537 106.458 110.004C106.765 110.457 107.152 110.817 107.618 111.084C108.085 111.337 108.585 111.464 109.118 111.464C109.705 111.464 110.258 111.317 110.778 111.024C111.312 110.73 111.672 110.344 111.858 109.864L113.738 110.404C113.512 110.91 113.165 111.37 112.698 111.784C112.245 112.184 111.705 112.504 111.078 112.744C110.452 112.97 109.772 113.084 109.038 113.084ZM105.898 106.924H112.218C112.178 106.324 112.005 105.797 111.698 105.344C111.405 104.877 111.025 104.517 110.558 104.264C110.105 103.997 109.598 103.864 109.038 103.864C108.492 103.864 107.985 103.997 107.518 104.264C107.065 104.517 106.692 104.877 106.398 105.344C106.105 105.797 105.938 106.324 105.898 106.924Z" fill="#1C1A1F"/>
</svg>
