<svg xmlns="http://www.w3.org/2000/svg" width="44" height="44" viewBox="0 0 44 44" fill="none">
  <path d="M25.8 33.7499C22.3 32.4499 18.7 32.25 15.4 33.15C13.1 33.75 10.9 34.95 8.90002 36.45L7.5 37.65L7.10001 38.05L8 38.8499C8.1 38.8499 8.10001 38.95 8.20001 39.05C8.40001 39.25 8.60002 39.35 8.90002 39.55L9.5 39.95L10.1 39.45C10.2 39.35 10.4 39.15 10.6 39.05C12.4 37.55 14.4 36.55 16.5 36.05C19.2 35.35 22.1 35.45 25 36.55C27.4 37.45 32.3 38.55 38.2 36.05L38.4 35.95L38.7 35.65C38.7 35.55 38.8 35.55 38.9 35.45C39.4 34.85 39.9 34.25 40.3 33.55L42.3 30.45L39.1 32.2499C34.4 34.8499 30.1 35.3499 25.8 33.7499Z" fill="#252525"/>
  <path d="M12.1 22.95C14.8 22.25 17.7 22.35 20.6 23.45C23.8 24.65 32 26.35 41.2 18.05L42.7 16.55L42.8 16.45L43.2 16.05L43 15.55C42.9 15.15 42.7 14.65 42.5 14.15L42 12.75L41 13.75C40.9 13.95 40.7 14.05 40.5 14.25C36.1 18.75 29.3 23.35 21.5 20.55C18 19.25 14.4 19.05 11.1 19.95C7.90001 20.85 5.1 22.55 2.5 24.95V24.85L1 26.45C1 26.55 0.900018 26.55 0.800018 26.65L0.5 26.95L0.600006 27.35C0.700006 27.85 0.9 28.35 1 28.85L1.60001 30.45L2.60001 29.15C2.70001 28.95 2.9 28.85 3 28.65C5.1 26.75 8.00001 24.05 12.1 22.95Z" fill="#252525"/>
  <path d="M2.40002 21.15C4.70002 18.75 7.30001 17.25 10.1 16.45C12.8 15.75 15.7 15.85 18.6 16.95C27.6 20.25 35.4 14.85 38.8 11.95L40.1 10.65L40.6 10.25L40.2 9.65002C39.9 9.35002 39.7 8.95002 39.4 8.55002L38.8 7.75L38.1 8.45001C38 8.55001 37.8 8.75001 37.7 8.85001C33.5 12.85 27 16.95 19.6 14.15C16.1 12.85 12.5 12.65 9.20001 13.55C7.10001 14.15 5.10001 15.15 3.10001 16.45L1 18.15C0.8 18.35 0.7 18.45 0.5 18.65L0.300018 18.85V19.15C0.200018 19.85 0.200006 20.55 0.100006 21.15L0 23.65L1.70001 21.85C1.90001 21.65 2.10002 21.35 2.40002 21.15Z" fill="#252525"/>
  <path d="M28.7 40.5501L28.5 41.1501L28.7 40.5501C28.4 40.4501 28.2 40.35 27.9 40.25C24.4 38.95 20.8 38.7501 17.5 39.6501C16.8 39.8501 16.1 40.05 15.4 40.35L13 41.45L12.4 41.75L14.4 42.45C15 42.65 15.6 42.8501 16.2 43.0501L16.5 43.1501L16.8 43.0501C17.1 42.9501 17.4 42.75 17.7 42.75C17.9 42.75 18.1 42.6501 18.3 42.5501C20.7 41.9501 23.3 41.95 26.1 42.85C26.4 42.95 26.6 43.0501 26.9 43.1501L27.4 43.35L27.7 43.25C28.4 43.05 29.2 42.8501 29.8 42.5501L32.6 41.5501L29.7 40.85C29.4 40.75 29 40.6501 28.7 40.5501Z" fill="#252525"/>
  <path d="M44 19.85L42.5 21.35C42.3 21.55 42.1 21.75 41.9 21.95C37.8 25.85 31.2 30.05 23.8 27.25C20.3 25.95 16.7 25.75 13.4 26.65C10.3 27.55 7.5 29.15 5 31.55L3.70001 32.95L3.30002 33.45L3.70001 34.05C4.00001 34.45 4.20002 34.75 4.40002 35.15L5 36.05L5.70001 35.15C5.80001 35.05 6.00001 34.85 6.10001 34.75C8.50001 32.15 11.1 30.55 14.1 29.75C16.8 29.05 19.7 29.15 22.6 30.25C25.1 31.15 27.7 31.45 30.3 31.15C34.9 30.65 39.5 28.05 42.9 25.15C43.1 24.95 43.3 24.85 43.5 24.65L43.8 24.35V24.05C43.8 23.45 43.9 22.75 43.9 22.15L44 19.85Z" fill="#252525"/>
  <path d="M6 10.6501L5.70001 10.05L6 10.6501C6.6 10.3501 7.30002 10.15 7.90002 9.95004C10.6 9.25004 13.5 9.35004 16.4 10.45C18.3 11.15 20.2 11.45 22.3 11.45C26.5 11.45 30.7 9.95005 34.6 7.05005L36.1 5.85004L36.6 5.45004L35.7 4.75003C35.4 4.45003 35 4.15004 34.6 3.95004L34 3.55005L33.5 3.95004C33.3 4.05004 33.2 4.25004 33 4.35004C27.7 8.35004 22.4 9.45005 17.4 7.55005C13.8 6.25005 10.2 5.95005 6.60001 7.05005C6.30001 7.15005 6.00001 7.25004 5.60001 7.35004L5.40002 7.45004L5.10001 7.75003C5.10001 7.85003 5.00002 7.85004 4.90002 7.95004C4.50002 8.55004 4.00001 9.05006 3.60001 9.65005L1.70001 12.55L4.80002 10.95C5.30002 10.95 5.7 10.7501 6 10.6501Z" fill="#252525"/>
  <path d="M14.2 3.85001L14.5 3.95001C15.8 4.45001 17.8 4.95001 20.3 4.95001C22.9 4.95001 25.4 4.35001 27.9 3.35001L31 1.85001L28.9 1.15002C28.3 0.950024 27.7 0.750024 27 0.650024H26.7L26.4 0.75C26.1 0.85 25.8 1.05002 25.5 1.15002C22.5 2.25002 19.5 2.45002 16.6 1.65002C16.3 1.55002 16 1.45001 15.7 1.35001L15.4 1.25L15.1 1.35001C14.5 1.55001 13.9 1.75002 13.3 2.05002L11 3.05002L13.4 3.75C13.6 3.65 13.9 3.75001 14.2 3.85001Z" fill="#252525"/>
</svg>