<svg xmlns="http://www.w3.org/2000/svg" width="40" height="40" viewBox="0 0 40 40" fill="none">
  <path d="M36.6667 20C36.6667 22.1887 36.2356 24.356 35.398 26.3781C34.5604 28.4002 33.3328 30.2375 31.7851 31.7852C30.2375 33.3328 28.4002 34.5605 26.3781 35.398C24.356 36.2356 22.1887 36.6667 20 36.6667C17.8113 36.6667 15.644 36.2356 13.622 35.398C11.5999 34.5605 9.76254 33.3328 8.2149 31.7852C6.66725 30.2375 5.4396 28.4002 4.60202 26.3781C3.76444 24.356 3.33334 22.1887 3.33334 20C3.33334 17.8113 3.76444 15.6441 4.60202 13.622C5.4396 11.5999 6.66726 9.76257 8.2149 8.21493C9.76254 6.66728 11.5999 5.43963 13.622 4.60205C15.644 3.76447 17.8113 3.33337 20 3.33337C22.1887 3.33337 24.356 3.76447 26.3781 4.60205C28.4002 5.43963 30.2375 6.66729 31.7851 8.21493C33.3328 9.76257 34.5604 11.5999 35.398 13.622C36.2356 15.6441 36.6667 17.8113 36.6667 20L36.6667 20Z" stroke="#363637" stroke-width="1.5"/>
  <path d="M26.6667 20C26.6667 22.1887 26.4942 24.356 26.1592 26.3781C25.8242 28.4002 25.3331 30.2375 24.7141 31.7852C24.095 33.3328 23.3601 34.5605 22.5512 35.398C21.7424 36.2356 20.8755 36.6667 20 36.6667C19.1245 36.6667 18.2576 36.2356 17.4488 35.398C16.6399 34.5605 15.905 33.3328 15.286 31.7852C14.6669 30.2375 14.1758 28.4002 13.8408 26.3781C13.5058 24.356 13.3333 22.1887 13.3333 20C13.3333 17.8113 13.5058 15.6441 13.8408 13.622C14.1758 11.5999 14.6669 9.76257 15.286 8.21493C15.905 6.66728 16.64 5.43963 17.4488 4.60205C18.2576 3.76447 19.1245 3.33337 20 3.33337C20.8755 3.33337 21.7424 3.76447 22.5512 4.60205C23.3601 5.43963 24.095 6.66729 24.7141 8.21493C25.3331 9.76257 25.8242 11.5999 26.1592 13.622C26.4942 15.6441 26.6667 17.8113 26.6667 20L26.6667 20Z" stroke="#363637" stroke-width="1.5"/>
  <path d="M3.33334 20H36.6667" stroke="#363637" stroke-width="1.5" stroke-linecap="round"/>
</svg>