<svg xmlns="http://www.w3.org/2000/svg" width="20" height="20" viewBox="0 0 20 20" fill="none">
  <g clip-path="url(#clip0_1801_45)">
    <path d="M1.66669 10.1699C1.66669 8.26287 1.66669 7.30936 2.09935 6.51891C2.53202 5.72847 3.32247 5.23789 4.90338 4.25673L6.57005 3.22235C8.24118 2.1852 9.07674 1.66663 10 1.66663C10.9233 1.66663 11.7589 2.1852 13.43 3.22235L15.0967 4.25673C16.6776 5.23789 17.468 5.72847 17.9007 6.51891C18.3334 7.30936 18.3334 8.26287 18.3334 10.1699V11.4374C18.3334 14.6882 18.3334 16.3135 17.357 17.3234C16.3807 18.3333 14.8094 18.3333 11.6667 18.3333H8.33335C5.19066 18.3333 3.61931 18.3333 2.643 17.3234C1.66669 16.3135 1.66669 14.6882 1.66669 11.4374V10.1699Z" stroke="#FBF9FE" stroke-width="1.5"/>
    <path d="M10 12.5L10 15" stroke="#FBF9FE" stroke-width="1.5" stroke-linecap="round"/>
  </g>
  <defs>
    <clipPath id="clip0_1801_45">
      <rect width="20" height="20" fill="white"/>
    </clipPath>
  </defs>
</svg>