<svg width="379" height="348" viewBox="0 0 379 348" fill="none" xmlns="http://www.w3.org/2000/svg">
<path fill-rule="evenodd" clip-rule="evenodd" d="M32 0C14.3269 0 0 14.3269 0 32V316C0 333.673 14.3269 348 32 348H347C364.673 348 379 333.673 379 316V112C379 97.0461 379 89.5692 375.785 84C373.678 80.3515 370.648 77.3218 367 75.2154C361.431 72 353.954 72 339 72H335C323.817 72 318.226 72 313.816 70.1731C307.935 67.7373 303.263 63.0651 300.827 57.1844C299 52.7739 299 47.1826 299 36V36C299 24.8174 299 19.2261 297.173 14.8156C294.737 8.93492 290.065 4.26275 284.184 1.82689C279.774 0 274.183 0 263 0H32Z" fill="white" fill-opacity="0.6"/>
</svg>
